<?xml version="1.0" standalone="no"?>
<!DOCTYPE svg PUBLIC "-//W3C//DTD SVG 20010904//EN"
 "http://www.w3.org/TR/2001/REC-SVG-20010904/DTD/svg10.dtd">
<svg version="1.0" xmlns="http://www.w3.org/2000/svg"
 width="334.000000pt" height="334.000000pt" viewBox="0 0 334.000000 334.000000"
 preserveAspectRatio="xMidYMid meet">
<metadata>
Created by potrace 1.11, written by Peter Selinger 2001-2013
</metadata>
<g transform="translate(0.000000,334.000000) scale(0.100000,-0.100000)"
fill="#000000" stroke="none">
<path d="M1690 3325 c-87 -14 -255 -59 -314 -83 -103 -42 -279 -138 -358 -195
-122 -88 -217 -178 -337 -322 -61 -74 -157 -237 -208 -355 -99 -231 -136 -414
-137 -680 -1 -181 7 -283 30 -380 3 -14 8 -38 11 -55 11 -64 76 -245 124 -343
62 -126 166 -283 254 -380 221 -247 538 -433 846 -496 41 -8 88 -18 104 -21
67 -14 380 -14 479 0 252 37 548 143 736 263 72 46 90 68 90 109 0 47 -16 72
-54 88 -41 17 -65 11 -135 -35 -193 -127 -439 -221 -641 -245 -25 -3 -61 -8
-80 -11 -115 -17 -346 0 -495 37 -253 63 -459 181 -650 373 -225 226 -360 502
-410 841 -21 137 -13 432 14 563 123 588 540 1019 1100 1137 104 22 170 28
296 28 159 0 237 -10 390 -50 166 -43 317 -111 479 -213 83 -53 127 -57 163
-15 28 32 30 91 5 121 -70 86 -428 252 -625 290 -10 2 -26 5 -35 8 -9 3 -35 8
-57 12 -22 3 -60 10 -85 14 -68 13 -415 9 -500 -5z"/>
<path d="M2188 2665 c-1 -2 -30 -5 -63 -6 -177 -8 -408 -118 -526 -251 l-26
-29 -64 22 c-254 88 -521 -91 -533 -356 -5 -109 29 -205 99 -283 l43 -48 -39
-59 c-33 -50 -73 -138 -83 -180 -54 -229 0 -453 149 -614 138 -149 315 -219
523 -209 203 11 391 119 503 291 21 32 39 62 41 67 2 4 32 11 68 15 139 15
296 76 405 158 126 94 239 253 292 412 26 75 28 91 27 250 0 159 -2 175 -28
250 -70 204 -207 369 -390 470 -72 39 -211 83 -286 90 -36 4 -75 8 -87 10 -12
2 -23 2 -25 0z"/>
</g>
</svg>
